<svg t="1590981591786" class="icon" viewBox="0 0 1252 1024" version="1.1" xmlns="http://www.w3.org/2000/svg" p-id="1253" width="200" height="200"><path d="M853.936396 148.852443H194.019739c-30.06994 0.623858-53.901304 25.578165-53.152674 55.648105v762.728403c-0.623858 30.06994 23.082734 54.899476 53.152674 55.648105h659.791885c30.06994-0.623858 53.901304-25.578165 53.152675-55.648105V204.500548c0.748629-30.06994-23.082734-55.024248-53.027903-55.648105z m-20.961618 796.291946H214.981357V226.335567h617.868649v718.808822z m-32.191057-522.792738H247.172414v481.992446h553.736079V422.351651zM448.304131 774.831242l33.438771-105.057634-67.875715-10.106495 185.660046-107.802607-33.438772 105.057634 67.875716 10.106494-185.660046 107.802608zM402.263434 102.562203h243.304496C672.019496 100.441087 692.482028 78.231753 692.482028 51.655416c0-26.576337-20.462532-48.785671-46.914098-50.906787h-243.304496c-26.576337 2.121116-46.914098 24.33045-46.914098 50.906787 0 26.576337 20.462532 48.660899 46.914098 50.906787z m0 0" p-id="1254"></path></svg>